# xmcd CD database file
#
# Track frame offsets:
#	150
#	12915
#	31132
#	48835
#	80942
#	103300
#	124316
#	144360
#	168976
#
# Disc length: 2738 seconds
#
# Revision: 0
# Processed by: cddbd v1.4PL0 Copyright (c) Steve Scherf et al.
# Submitted via: CDex 1.50Beta7
#
DISCID=740ab009
DTITLE=van blue music - Inke's got the Blues ...
DYEAR=2002
DGENRE=Blues
TTITLE0=Inke's got the Blues ...
TTITLE1=I Can't get you out of my mind
TTITLE2=Lookin' back
TTITLE3=Npbody knows you when you 're down and out
TTITLE4=Too much rain
TTITLE5=Shakedown
TTITLE6=Anything you want me to do
TTITLE7=The wind cries Baby
TTITLE8=Nobody loves me but my Daddy
EXTD=YEAR: 2002
EXTT0=
EXTT1=
EXTT2=
EXTT3=
EXTT4=
EXTT5=
EXTT6=
EXTT7=
EXTT8=
PLAYORDER=
